PathFileType	4	(X/Y/Z)	 s02c0301.trc
DataRate	CameraRate	NumFrames	NumMarkers	Units	OrigDataRate	OrigDataStartFrame	OrigNumFrames
200	200	4	51	mm	200	1	2000
Frame#	Time	racr			lacr			c7			jug			rlel			rdr			llel			ldr			s2			lic			ric			lasi			rasi			rpsi			lpsi			rgt			lgt			rth1			rth2			rth3			rth4			rlfc			rmfc			rsh1			rsh2			rsh3			rsh4			rlmal			rmmal			rcal			rtoe			rmt5			rmt1			lth1			lth2			lth4			lth3			llfc			lmfc			lsh1			lsh2			lsh3			lsh4			llmal			lmmal			lcal			ltoe			lmt5			SBIKE			LBIKE			RBIKE			
		X1	Y1	Z1	X2	Y2	Z2	X3	Y3	Z3	X4	Y4	Z4	X5	Y5	Z5	X6	Y6	Z6	X7	Y7	Z7	X8	Y8	Z8	X9	Y9	Z9	X10	Y10	Z10	X11	Y11	Z11	X12	Y12	Z12	X13	Y13	Z13	X14	Y14	Z14	X15	Y15	Z15	X16	Y16	Z16	X17	Y17	Z17	X18	Y18	Z18	X19	Y19	Z19	X20	Y20	Z20	X21	Y21	Z21	X22	Y22	Z22	X23	Y23	Z23	X24	Y24	Z24	X25	Y25	Z25	X26	Y26	Z26	X27	Y27	Z27	X28	Y28	Z28	X29	Y29	Z29	X30	Y30	Z30	X31	Y31	Z31	X32	Y32	Z32	X33	Y33	Z33	X34	Y34	Z34	X35	Y35	Z35	X36	Y36	Z36	X37	Y37	Z37	X38	Y38	Z38	X39	Y39	Z39	X40	Y40	Z40	X41	Y41	Z41	X42	Y42	Z42	X43	Y43	Z43	X44	Y44	Z44	X45	Y45	Z45	X46	Y46	Z46	X47	Y47	Z47	X48	Y48	Z48	X49	Y49	Z49	X50	Y50	Z50	X51	Y51	Z51	
1	0.0050	488.410689	1277.306867	-111.042411	509.641871	1284.366606	-464.992013	521.737039	1317.031426	-290.027296	463.806813	1193.257097	-288.266161	604.349779	1031.901345	-109.159010	726.961688	839.303769	-129.435262	588.561694	1024.807785	-515.933074	722.818804	835.788250	-471.638474	6.207723	1107.325873	-310.118401	153.889819	1104.870982	-446.303190	138.865241	1105.323194	-168.599897	191.207067	1057.055977	-428.695850	194.519726	1080.540831	-192.369541	34.094736	1149.405326	-266.239379	45.588071	1165.744937	-350.324365	109.206723	1034.935178	-124.686907	86.659617	1013.542692	-487.423075	191.162919	1010.621559	-121.460497	278.573586	1002.003657	-128.156098	350.692929	962.162768	-102.987616	288.073205	1025.195348	-156.543226	475.046454	879.001892	-131.584455	472.497120	861.236606	-244.797956	463.411680	765.799153	-119.480098	450.484840	681.247231	-141.338105	401.030048	608.849266	-137.280071	462.392218	679.068078	-178.039690	346.704321	506.413299	-145.961795	354.185680	526.151012	-225.416814	268.417073	463.871687	-188.443385	551.661434	428.725925	-186.536861	442.485106	421.703987	-128.256046	469.603948	434.039392	-235.473687	188.547668	909.434198	-504.444277	255.253486	854.714904	-503.019621	282.346704	873.466320	-486.208537	284.899391	770.208414	-504.056312	337.504663	683.529717	-481.292581	338.589862	654.448087	-379.159290	289.050749	591.535708	-501.729537	256.213055	514.586166	-483.916750	184.173558	458.135781	-489.174231	270.902073	505.582231	-448.029821	107.809842	387.768298	-474.871566	121.182450	377.998090	-397.755983	26.974330	376.051055	-437.919104	259.080641	208.131547	-434.935836	159.909179	245.783438	-498.535959	-126.589644	873.059997	-308.230790	37.796151	86.513044	-514.571386	34.514316	82.511148	-114.119730	
2	0.0100	488.472797	1277.343970	-111.020257	509.749878	1284.396561	-464.967672	521.822534	1317.005081	-290.013357	463.967525	1193.237130	-288.245698	604.395459	1031.927079	-109.074469	726.993198	839.310977	-129.407428	588.608692	1024.793815	-515.905859	722.859312	835.779740	-471.652197	6.152372	1107.441897	-310.097368	153.870827	1104.935128	-446.235542	138.924242	1105.364937	-168.632257	191.122379	1057.072396	-428.672236	194.549515	1080.556311	-192.437582	34.126021	1149.513024	-266.210092	45.572457	1165.909874	-350.324871	109.180831	1034.978061	-124.678165	86.542512	1013.655617	-487.411523	191.153520	1010.638818	-121.468201	278.568929	1001.995591	-128.155463	350.653356	962.149548	-102.965516	288.050025	1025.227261	-156.522142	474.954087	878.958223	-131.650827	472.419138	861.265085	-244.826536	463.328322	765.812501	-119.516226	450.375175	681.295734	-141.375970	400.914771	608.819777	-137.291081	462.262907	679.112757	-178.076805	346.525556	506.449907	-145.992733	353.952799	526.198521	-225.412694	268.294864	463.919431	-188.461711	551.525286	428.931294	-186.550260	442.356317	421.822598	-128.240028	469.486708	434.233727	-235.473402	188.547788	909.616741	-504.364152	255.308471	854.971306	-502.872365	282.369115	873.738112	-485.960563	285.041675	770.460553	-503.910962	337.619671	683.806717	-481.196496	338.490924	654.703080	-379.089089	289.217578	591.757414	-501.687135	256.499704	514.796960	-483.928042	184.542996	458.242334	-489.208893	271.195306	505.832533	-448.003056	108.322935	387.716710	-474.914453	121.648771	377.950421	-397.790903	27.498205	376.257384	-437.942785	259.142917	207.650948	-434.875849	160.121458	245.613160	-498.544391	-126.577464	873.060260	-308.230464	37.789913	86.528736	-514.558557	34.514447	82.511245	-114.108871	
3	0.0150	488.557657	1277.367359	-111.021070	509.871088	1284.434515	-464.922177	521.890252	1316.982503	-289.997579	464.089877	1193.241721	-288.212322	604.465197	1031.943962	-108.997185	726.975702	839.295767	-129.389246	588.681974	1024.803940	-515.885815	722.884199	835.734225	-471.616441	6.089880	1107.568970	-310.051237	153.818245	1105.009216	-446.172977	138.964031	1105.407631	-168.626833	190.993921	1057.099691	-428.693702	194.574607	1080.567855	-192.522872	34.145278	1149.652352	-266.148062	45.560824	1166.120188	-350.282424	109.138410	1035.044688	-124.635188	86.406436	1013.846777	-487.392342	191.092238	1010.702992	-121.469447	278.510721	1002.068405	-128.143596	350.597324	962.218195	-102.976225	287.976589	1025.336162	-156.532999	474.926228	879.025569	-132.342911	472.319583	861.360634	-244.881260	463.219064	765.948567	-119.553975	450.279544	681.400056	-141.396146	400.766987	608.941991	-137.299070	462.130782	679.191402	-178.083860	346.415105	506.538053	-146.015722	353.811237	526.317066	-225.420183	268.208593	464.050414	-188.484274	551.413154	429.152860	-186.551344	442.233563	422.001221	-128.225615	469.385299	434.377857	-235.465687	188.554234	909.880601	-504.294408	255.398939	855.380413	-502.712725	282.366316	874.161357	-485.699181	285.256750	770.958286	-503.765357	337.781033	684.185284	-481.146183	338.532345	655.000978	-379.018078	289.474055	592.132155	-501.663909	256.863745	515.081864	-483.940416	184.963873	458.432040	-489.279441	271.549401	506.132465	-448.013446	108.922117	387.703429	-475.018148	122.211967	377.922963	-397.859742	28.125192	376.509426	-438.027441	259.239667	207.139416	-434.873895	160.360802	245.425258	-498.533235	-126.576976	873.070779	-308.221967	37.802157	86.530021	-514.568442	34.516389	82.504676	-114.121845	
4	0.0200	488.955861	1277.050914	-111.182232	509.795117	1284.978836	-464.392335	521.980617	1316.961917	-289.970970	464.229792	1193.218457	-288.168858	604.118865	1032.130462	-108.418119	726.992887	839.278313	-129.384911	588.767352	1024.826892	-515.847042	722.818942	836.582781	-472.695286	5.815977	1108.030660	-309.617418	154.840482	1104.357087	-447.534370	138.995937	1105.435117	-168.632215	190.847400	1057.139502	-428.711385	194.571419	1080.604378	-192.596397	34.145025	1149.812948	-266.072239	45.654965	1166.457507	-350.265269	109.774941	1034.279247	-125.702346	86.276408	1014.076818	-487.391551	191.269076	1010.700781	-121.416973	278.430960	1002.191327	-128.164651	350.457381	962.273243	-103.327886	287.956487	1025.457657	-156.557252	474.874451	879.159301	-132.383172	472.213578	861.522134	-244.923951	463.193647	765.978546	-119.545729	447.193104	678.915917	-142.063941	400.819472	608.978561	-137.361209	461.176473	678.873259	-178.387313	345.710898	507.570750	-145.501966	354.865822	526.401584	-227.481982	268.136634	464.200151	-188.505842	551.331498	429.314751	-186.563611	441.563302	423.003481	-127.470786	469.286418	434.518405	-235.445280	188.543648	910.299246	-504.219530	255.611285	855.546042	-502.406410	282.395117	874.596687	-485.425224	285.500563	771.471267	-503.654660	338.163622	684.444553	-481.251946	338.653068	655.366088	-378.970334	289.761262	592.563600	-501.666153	256.462681	514.460952	-484.775746	185.410888	458.778577	-489.434307	271.560742	506.829705	-447.461374	109.612623	387.690926	-475.099838	122.871043	377.888663	-397.958357	28.854390	376.760725	-438.079169	259.337397	206.589469	-434.916581	160.605019	245.214261	-498.532520	-126.570676	873.050952	-308.242351	37.797248	86.515493	-514.551811	34.511666	82.499824	-114.104440	
